<svg version="1.1" viewBox="0.0 0.0 113.38582677165354 113.38582677165354" fill="none" stroke="none" stroke-linecap="square" stroke-miterlimit="10" xmlns:xlink="http://www.w3.org/1999/xlink" xmlns="http://www.w3.org/2000/svg"><clipPath id="ge3007cb0e6_0_17.0"><path d="m0 0l113.385826 0l0 113.385826l-113.385826 0l0 -113.385826z" clip-rule="nonzero"/></clipPath><g clip-path="url(#ge3007cb0e6_0_17.0)"><path fill="#000000" fill-opacity="0.0" d="m0 0l113.385826 0l0 113.385826l-113.385826 0z" fill-rule="evenodd"/><g filter="url(#shadowFilter-ge3007cb0e6_0_17.1)"><use xlink:href="#ge3007cb0e6_0_17.1" transform=""/></g><defs><filter id="shadowFilter-ge3007cb0e6_0_17.1" filterUnits="userSpaceOnUse"><feGaussianBlur in="SourceAlpha" stdDeviation="2.5" result="blur"/><feComponentTransfer in="blur" color-interpolation-filters="sRGB"><feFuncR type="linear" slope="0" intercept="0.0"/><feFuncG type="linear" slope="0" intercept="0.0"/><feFuncB type="linear" slope="0" intercept="0.0"/><feFuncA type="linear" slope="0.2" intercept="0"/></feComponentTransfer></filter></defs><g id="ge3007cb0e6_0_17.1"><path fill="#aeddef" d="m3.7795277 56.692913l0 0c0 -29.223255 23.69013 -52.913383 52.913383 -52.913383l0 0c14.0335045 0 27.49223 5.574787 37.415417 15.4979725c9.92318 9.923183 15.497971 23.381912 15.497971 37.415413l0 0c0 29.223255 -23.690132 52.913387 -52.913387 52.913387l0 0c-29.223255 0 -52.913383 -23.690132 -52.913383 -52.913387z" fill-rule="evenodd"/></g><path fill="#829399" d="m105.839455 57.614174l-20.80053 -24.850395l-57.244095 40.125984l28.897638 34.42257" fill-rule="evenodd"/><path fill="#829399" d="m109.589645 58.02034l0 0c-0.7139511 28.450287 -23.803291 51.23993 -52.26048 51.58213l-0.4525299 -37.631393c8.217297 -0.09881592 14.884579 -6.67955 15.09074 -14.8948555z" fill-rule="evenodd"/><g filter="url(#shadowFilter-ge3007cb0e6_0_17.2)"><use xlink:href="#ge3007cb0e6_0_17.2" transform=""/></g><defs><filter id="shadowFilter-ge3007cb0e6_0_17.2" filterUnits="userSpaceOnUse"><feGaussianBlur in="SourceAlpha" stdDeviation="2.5" result="blur"/><feComponentTransfer in="blur" color-interpolation-filters="sRGB"><feFuncR type="linear" slope="0" intercept="0.0"/><feFuncG type="linear" slope="0" intercept="0.0"/><feFuncB type="linear" slope="0" intercept="0.0"/><feFuncA type="linear" slope="0.1" intercept="0"/></feComponentTransfer></filter></defs><g id="ge3007cb0e6_0_17.2"><path fill="#ffffff" d="m3.7795277 56.692913l0 0c0 -29.223255 23.69013 -52.913383 52.913383 -52.913383l0 0c14.0335045 0 27.49223 5.574787 37.415417 15.4979725c9.92318 9.923183 15.497971 23.381912 15.497971 37.415413l0 0c0 29.223255 -23.690132 52.913387 -52.913387 52.913387l0 0c-29.223255 0 -52.913383 -23.690132 -52.913383 -52.913387zm4.1367683 0l0 0c0 26.93858 21.838036 48.776615 48.77662 48.776615c26.93858 0 48.776615 -21.838036 48.776615 -48.776615l0 0c0 -26.938581 -21.838036 -48.77662 -48.776615 -48.77662l0 0c-26.938581 0 -48.77662 21.838036 -48.77662 48.77662z" fill-rule="evenodd"/></g><path fill="#829399" d="m48.44738 71.59875l-19.474379 0l0 -37.96345l54.659935 0l0 31.149769" fill-rule="evenodd"/><path stroke="#ffffff" stroke-width="4.0" stroke-linejoin="round" stroke-linecap="butt" d="m48.44738 71.59875l-19.474379 0l0 -37.96345l54.659935 0l0 31.149769" fill-rule="evenodd"/><g filter="url(#shadowFilter-ge3007cb0e6_0_17.3)"><use xlink:href="#ge3007cb0e6_0_17.3" transform=""/></g><defs><filter id="shadowFilter-ge3007cb0e6_0_17.3" filterUnits="userSpaceOnUse"><feGaussianBlur in="SourceAlpha" stdDeviation="5.0" result="blur"/><feComponentTransfer in="blur" color-interpolation-filters="sRGB"><feFuncR type="linear" slope="0" intercept="0.0"/><feFuncG type="linear" slope="0" intercept="0.0"/><feFuncB type="linear" slope="0" intercept="0.0"/><feFuncA type="linear" slope="0.1" intercept="0"/></feComponentTransfer></filter></defs><g id="ge3007cb0e6_0_17.3"><path fill="#000000" fill-opacity="0.0" d="m35.229164 42.11851l32.510986 0" fill-rule="evenodd"/><path stroke="#ffffff" stroke-width="4.0" stroke-linejoin="round" stroke-linecap="butt" d="m35.229164 42.11851l32.510986 0" fill-rule="evenodd"/></g><g filter="url(#shadowFilter-ge3007cb0e6_0_17.4)"><use xlink:href="#ge3007cb0e6_0_17.4" transform=""/></g><defs><filter id="shadowFilter-ge3007cb0e6_0_17.4" filterUnits="userSpaceOnUse"><feGaussianBlur in="SourceAlpha" stdDeviation="5.0" result="blur"/><feComponentTransfer in="blur" color-interpolation-filters="sRGB"><feFuncR type="linear" slope="0" intercept="0.0"/><feFuncG type="linear" slope="0" intercept="0.0"/><feFuncB type="linear" slope="0" intercept="0.0"/><feFuncA type="linear" slope="0.1" intercept="0"/></feComponentTransfer></filter></defs><g id="ge3007cb0e6_0_17.4"><path fill="#000000" fill-opacity="0.0" d="m35.229164 48.8316l24.018936 0" fill-rule="evenodd"/><path stroke="#ffffff" stroke-width="4.0" stroke-linejoin="round" stroke-linecap="butt" d="m35.229164 48.8316l24.018936 0" fill-rule="evenodd"/></g><g filter="url(#shadowFilter-ge3007cb0e6_0_17.5)"><use xlink:href="#ge3007cb0e6_0_17.5" transform=""/></g><defs><filter id="shadowFilter-ge3007cb0e6_0_17.5" filterUnits="userSpaceOnUse"><feGaussianBlur in="SourceAlpha" stdDeviation="5.0" result="blur"/><feComponentTransfer in="blur" color-interpolation-filters="sRGB"><feFuncR type="linear" slope="0" intercept="0.0"/><feFuncG type="linear" slope="0" intercept="0.0"/><feFuncB type="linear" slope="0" intercept="0.0"/><feFuncA type="linear" slope="0.1" intercept="0"/></feComponentTransfer></filter></defs><g id="ge3007cb0e6_0_17.5"><path fill="#000000" fill-opacity="0.0" d="m35.229164 56.016014l16.958977 0" fill-rule="evenodd"/><path stroke="#ffffff" stroke-width="4.0" stroke-linejoin="round" stroke-linecap="butt" d="m35.229164 56.016014l16.958977 0" fill-rule="evenodd"/></g><g filter="url(#shadowFilter-ge3007cb0e6_0_17.6)"><use xlink:href="#ge3007cb0e6_0_17.6" transform=""/></g><defs><filter id="shadowFilter-ge3007cb0e6_0_17.6" filterUnits="userSpaceOnUse"><feGaussianBlur in="SourceAlpha" stdDeviation="5.0" result="blur"/><feComponentTransfer in="blur" color-interpolation-filters="sRGB"><feFuncR type="linear" slope="0" intercept="0.0"/><feFuncG type="linear" slope="0" intercept="0.0"/><feFuncB type="linear" slope="0" intercept="0.0"/><feFuncA type="linear" slope="0.1" intercept="0"/></feComponentTransfer></filter></defs><g id="ge3007cb0e6_0_17.6"><path fill="#000000" fill-opacity="0.0" d="m26.805758 79.75115l38.591095 0" fill-rule="evenodd"/><path stroke="#ffffff" stroke-width="4.0" stroke-linejoin="round" stroke-linecap="butt" d="m26.805758 79.75115l38.591095 0" fill-rule="evenodd"/></g></g></svg>